<mxfile host="www.draw.io" modified="2020-03-11T05:50:32.248Z" agent="Mozilla/5.0 (Macintosh; Intel Mac OS X 10_12_6) AppleWebKit/537.36 (KHTML, like Gecko) Chrome/80.0.3987.132 Safari/537.36" etag="o1Sz7PIWE_xtsvrQw1MB" version="12.8.2" type="github">
  <diagram id="t98-xIenyPETAwBofkGP" name="Page-1">
    <mxGraphModel dx="1106" dy="538" grid="0" gridSize="10" guides="1" tooltips="1" connect="1" arrows="1" fold="1" page="1" pageScale="1" pageWidth="827" pageHeight="1169" math="0" shadow="0">
      <root>
        <mxCell id="0" />
        <mxCell id="1" parent="0" />
        <mxCell id="W1x4Mog7ufLtQGexL2UW-1" value="&lt;font style=&quot;font-size: 15px&quot;&gt;主队列配置&lt;/font&gt;" style="rounded=0;whiteSpace=wrap;html=1;" vertex="1" parent="1">
          <mxGeometry x="200" y="200" width="120" height="60" as="geometry" />
        </mxCell>
        <mxCell id="W1x4Mog7ufLtQGexL2UW-2" value="&lt;font style=&quot;font-size: 15px&quot;&gt;主类别配置&lt;/font&gt;" style="rounded=0;whiteSpace=wrap;html=1;" vertex="1" parent="1">
          <mxGeometry x="370" y="200" width="120" height="60" as="geometry" />
        </mxCell>
        <mxCell id="W1x4Mog7ufLtQGexL2UW-4" value="&lt;font style=&quot;font-size: 15px&quot;&gt;子队列和子类别建立&lt;/font&gt;" style="rounded=0;whiteSpace=wrap;html=1;" vertex="1" parent="1">
          <mxGeometry x="540" y="200" width="120" height="60" as="geometry" />
        </mxCell>
        <mxCell id="W1x4Mog7ufLtQGexL2UW-6" value="&lt;font style=&quot;font-size: 15px&quot;&gt;为所有类别建立过滤器&lt;/font&gt;" style="rounded=0;whiteSpace=wrap;html=1;" vertex="1" parent="1">
          <mxGeometry x="707" y="200" width="120" height="60" as="geometry" />
        </mxCell>
        <mxCell id="W1x4Mog7ufLtQGexL2UW-8" value="" style="edgeStyle=orthogonalEdgeStyle;rounded=0;orthogonalLoop=1;jettySize=auto;html=1;strokeWidth=5;strokeColor=#00CC00;" edge="1" parent="1">
          <mxGeometry relative="1" as="geometry">
            <mxPoint x="490" y="229.5" as="sourcePoint" />
            <mxPoint x="540" y="229.5" as="targetPoint" />
          </mxGeometry>
        </mxCell>
        <mxCell id="W1x4Mog7ufLtQGexL2UW-9" value="" style="edgeStyle=orthogonalEdgeStyle;rounded=0;orthogonalLoop=1;jettySize=auto;html=1;strokeWidth=5;strokeColor=#00CC00;" edge="1" parent="1">
          <mxGeometry relative="1" as="geometry">
            <mxPoint x="660" y="229.5" as="sourcePoint" />
            <mxPoint x="710" y="229.5" as="targetPoint" />
          </mxGeometry>
        </mxCell>
        <mxCell id="W1x4Mog7ufLtQGexL2UW-11" value="" style="edgeStyle=orthogonalEdgeStyle;rounded=0;orthogonalLoop=1;jettySize=auto;html=1;strokeWidth=5;strokeColor=#00CC00;" edge="1" parent="1">
          <mxGeometry relative="1" as="geometry">
            <mxPoint x="320" y="229.5" as="sourcePoint" />
            <mxPoint x="370" y="229.5" as="targetPoint" />
          </mxGeometry>
        </mxCell>
      </root>
    </mxGraphModel>
  </diagram>
</mxfile>
